{"title":"B.O.B., 2 Chainz - Headband 1080p HD","uid":9410638,"size":134808836,"categoryP":"video","categoryS":"music_videos","magnet":"?xt=urn:btih:503ea45b410e5dce5a3bddf554fd729dc0572eb1&amp;dn=B.O.B.%2C+2+Chainz+-+Headband+1080p+HD&amp;tr=udp%3A%2F%2Ftracker.openbittorrent.com%3A80&amp;tr=udp%3A%2F%2Fopen.demonii.com%3A1337&amp;tr=udp%3A%2F%2Ftracker.coppersurfer.tk%3A6969&amp;tr=udp%3A%2F%2Fexodus.desync.com%3A6969","seeders":1,"leechers":0,"uploader":"tlbslicer","files":5,"time":1388277882,"description":"Screenshots :\n &lt;a href=&quot;\nhttp://s27.postimg.org/t4uwaoq9v/vlcsnap_1.png&quot; rel=&quot;nofollow&quot; target=&quot;_NEW&quot;&gt;\nhttp://s27.postimg.org/t4uwaoq9v/vlcsnap_1.png&lt;/a&gt;\n &lt;a href=&quot;\nhttp://s27.postimg.org/hr8czhfr7/vlcsnap_2.png&quot; rel=&quot;nofollow&quot; target=&quot;_NEW&quot;&gt;\nhttp://s27.postimg.org/hr8czhfr7/vlcsnap_2.png&lt;/a&gt;\n &lt;a href=&quot;\nhttp://s27.postimg.org/rebv978qr/vlcsnap_3.png&quot; rel=&quot;nofollow&quot; target=&quot;_NEW&quot;&gt;\nhttp://s27.postimg.org/rebv978qr/vlcsnap_3.png&lt;/a&gt;\n\n\n\n B.O.B.,2.Chainz - Headband.1080p.HDTV-shadowCopy\n\n Format                                   : AVI\nFormat/Info                              : Audio Video Interleave\nFile size                                : 121 MiB\nDuration                                 : 40h 38mn\nOverall bit rate                         : 6 961 bps\n\nVideo\nID                                       : 0\nFormat                                   : AVC\nFormat/Info                              : Advanced Video Codec\nFormat profile                           : &lt;a class=&quot;__cf_email__&quot; href=&quot;/cdn-cgi/l/email-protection&quot; data-cfemail=&quot;f8b5999196b8b4ccd6c8&quot;&gt;[email&amp;#160;protected]&lt;/a&gt;&lt;script cf-hash='f9e31' type=&quot;text/javascript&quot;&gt;\n/* &lt;![CDATA[ */!function(){try{var t=&quot;currentScript&quot;in document?document.currentScript:function(){for(var t=document.getElementsByTagName(&quot;script&quot;),e=t.length;e--;)if(t[e].getAttribute(&quot;cf-hash&quot;))return t[e]}();if(t&amp;&amp;t.previousSibling){var e,r,n,i,c=t.previousSibling,a=c.getAttribute(&quot;data-cfemail&quot;);if(a){for(e=&quot;&quot;,r=parseInt(a.substr(0,2),16),n=2;a.length-n;n+=2)i=parseInt(a.substr(n,2),16)^r,e+=String.fromCharCode(i);e=document.createTextNode(e),c.parentNode.replaceChild(e,c)}}}catch(u){}}();/* ]]&gt; */&lt;/script&gt;\nFormat settings, CABAC                   : Yes\nFormat settings, ReFrames                : 4 frames\nFormat settings, GOP                     : M=4, N=28\nCodec ID                                 : H264\nDuration                                 : 3mn 37s\nBit rate                                 : 4 536 Kbps\nWidth                                    : 1 920 pixels\nHeight                                   : 1 088 pixels\nOriginal height                          : 1 080 pixels\nDisplay aspect ratio                     : 16:9\nFrame rate                               : 50.000 fps\nOriginal frame rate                      : 25.000 fps\nColor space                              : YUV\nChroma subsampling                       : 4:2:0\nBit depth                                : 8 bits\nScan type                                : MBAFF\nScan order                               : Top Field First\nBits/(Pixel*Frame)                       : 0.043\nStream size                              : 117 MiB (97%)\n\nAudio\nID                                       : 1\nFormat                                   : AAC\nFormat/Info                              : Advanced Audio Codec\nFormat profile                           : LC\nCodec ID                                 : FF\nDuration                                 : 40h 38mn\nSource duration                          : 3mn 34s\nBit rate                                 : 128 Kbps\nChannel(s)                               : 2 channels\nChannel positions                        : Front: L R\nSampling rate                            : 24.0 KHz\nCompression mode                         : Lossy\nStream size                              : 3.27 MiB (3%)\nAlignment                                : Split accross interleaves\nInterleave, duration                     : 43 ms (2.14 video frames)\n\n","torrent":{"xt":"urn:btih:503ea45b410e5dce5a3bddf554fd729dc0572eb1","amp;dn":"B.O.B.%2C+2+Chainz+-+Headband+1080p+HD","amp;tr":["udp%3A%2F%2Ftracker.openbittorrent.com%3A80","udp%3A%2F%2Fopen.demonii.com%3A1337","udp%3A%2F%2Ftracker.coppersurfer.tk%3A6969","udp%3A%2F%2Fexodus.desync.com%3A6969"],"infoHash":"503ea45b410e5dce5a3bddf554fd729dc0572eb1","infoHashBuffer":{"type":"Buffer","data":[80,62,164,91,65,14,93,206,90,59,221,245,84,253,114,157,192,87,46,177]},"announce":[],"urlList":[]}}